<?xml version="1.0" encoding="utf-8"?>
<!-- Generator: Adobe Illustrator 23.0.3, SVG Export Plug-In . SVG Version: 6.00 Build 0)  -->
<svg version="1.1" id="Calque_1" xmlns="http://www.w3.org/2000/svg" xmlns:xlink="http://www.w3.org/1999/xlink" x="0px" y="0px"
	 viewBox="0 0 960 165" style="enable-background:new 0 0 960 165;" xml:space="preserve">
<style type="text/css">
	.st0{fill:url(#SVGID_1_);stroke:#000000;stroke-width:2;stroke-miterlimit:10;}
	.st1{fill:url(#SVGID_2_);stroke:#000000;stroke-width:2;stroke-miterlimit:10;}
	.st2{fill:url(#SVGID_3_);stroke:#000000;stroke-width:2;stroke-miterlimit:10;}
	.st3{fill:url(#SVGID_4_);stroke:#000000;stroke-width:2;stroke-miterlimit:10;}
	.st4{fill:url(#SVGID_5_);stroke:#000000;stroke-width:2;stroke-miterlimit:10;}
	.st5{fill:url(#SVGID_6_);stroke:#000000;stroke-width:2;stroke-miterlimit:10;}
	.st6{fill:url(#SVGID_7_);stroke:#000000;stroke-width:2;stroke-miterlimit:10;}
	.st7{fill:url(#SVGID_8_);stroke:#000000;stroke-width:2;stroke-miterlimit:10;}
</style>
<g>
	<linearGradient id="SVGID_1_" gradientUnits="userSpaceOnUse" x1="4.957" y1="72.2268" x2="128.8994" y2="72.2268">
		<stop  offset="0" style="stop-color:#FF79DA"/>
		<stop  offset="0.1688" style="stop-color:#F375DA;stop-opacity:0.9298"/>
		<stop  offset="0.4764" style="stop-color:#D26ADB;stop-opacity:0.8019"/>
		<stop  offset="0.8853" style="stop-color:#9E59DC;stop-opacity:0.6318"/>
		<stop  offset="0.9618" style="stop-color:#9356DC;stop-opacity:0.6"/>
	</linearGradient>
	<path class="st0" d="M116.59,22.48c8.2,6.88,12.31,16.79,12.31,29.73c0,6.13-0.93,12.71-2.77,19.76
		c-3.47,12.94-8.84,23.92-16.12,32.94c-7.28,9.01-15.95,15.83-26,20.46c-10.05,4.62-20.98,6.93-32.76,6.93
		c-14.45,0-25.77-3.44-33.98-10.31C9.06,115.1,4.96,105.19,4.96,92.25c0-5.89,0.98-12.65,2.95-20.28
		c3.35-12.83,8.64-23.72,15.86-32.68c7.22-8.95,15.83-15.71,25.83-20.28c9.99-4.56,20.94-6.85,32.85-6.85
		C97,12.16,108.38,15.6,116.59,22.48z M69.96,33.31c-2.77,2.77-5.52,7.31-8.23,13.61c-2.72,6.3-5.63,15.05-8.75,26.26
		c-4.62,16.18-6.93,27.33-6.93,33.46c0,3.58,0.63,6.18,1.91,7.8c1.27,1.62,3.29,2.43,6.07,2.43c3.47,0,6.59-1.41,9.36-4.25
		c2.77-2.83,5.49-7.37,8.15-13.61c2.66-6.24,5.6-14.85,8.84-25.83c4.51-15.95,6.76-27.16,6.76-33.63c0-3.7-0.64-6.35-1.91-7.97
		c-1.27-1.62-3.24-2.43-5.89-2.43C75.86,29.15,72.74,30.54,69.96,33.31z"/>
	<linearGradient id="SVGID_2_" gradientUnits="userSpaceOnUse" x1="117.1101" y1="66.9397" x2="243.6519" y2="66.9397">
		<stop  offset="0" style="stop-color:#FF79DA"/>
		<stop  offset="0.1688" style="stop-color:#F375DA;stop-opacity:0.9298"/>
		<stop  offset="0.4764" style="stop-color:#D26ADB;stop-opacity:0.8019"/>
		<stop  offset="0.8853" style="stop-color:#9E59DC;stop-opacity:0.6318"/>
		<stop  offset="0.9618" style="stop-color:#9356DC;stop-opacity:0.6"/>
	</linearGradient>
	<path class="st1" d="M231.34,106.29c-0.23,0.46-0.35,1.16-0.35,2.08c0,0.81,0.2,1.45,0.61,1.91c0.4,0.46,0.95,0.69,1.65,0.69
		c1.39,0,2.57-0.61,3.55-1.82c0.98-1.21,1.65-1.82,1.99-1.82c0.58,0,1.04,0.38,1.39,1.13c0.35,0.75,0.52,1.65,0.52,2.69
		c0.11,3.35-0.98,6.62-3.29,9.79c-2.31,3.18-5.69,5.78-10.14,7.8c-4.45,2.02-9.79,3.03-16.03,3.03c-7.63,0-13.69-1.76-18.2-5.29
		c-4.51-3.52-6.82-8.23-6.93-14.13c0-4.27,1.04-9.07,3.12-14.39l9.53-24.96c0.58-1.5,0.87-2.71,0.87-3.64c0-1.5-0.49-2.69-1.47-3.55
		c-0.98-0.87-2.17-1.3-3.55-1.3c-2.2,0-4.42,1.01-6.67,3.03c-2.25,2.02-4.07,5.29-5.46,9.79v-0.35l-10.92,35.19
		c-0.35,1.39-0.52,2.6-0.52,3.64c0,1.5,0.29,2.69,0.87,3.55c0.58,0.87,1.39,1.71,2.43,2.51c0.81,0.81,1.39,1.47,1.73,1.99
		s0.4,1.19,0.17,1.99c-0.58,1.5-1.73,2.6-3.47,3.29s-4.39,1.04-7.97,1.04h-39.52c-3,0-5.2-0.49-6.59-1.47
		c-1.39-0.98-1.85-2.28-1.39-3.9c0.46-1.39,1.68-2.6,3.64-3.64c1.73-0.92,3.18-2.02,4.33-3.29c1.15-1.27,2.14-3.29,2.95-6.07
		l26.35-86.5c0.35-1.04,0.52-1.91,0.52-2.6c0-1.27-0.32-2.31-0.95-3.12c-0.64-0.81-1.47-1.62-2.51-2.43
		c-1.16-0.92-1.99-1.73-2.51-2.43s-0.61-1.62-0.26-2.77c0.69-2.66,4.33-4.97,10.92-6.93c6.59-1.96,13.46-2.95,20.63-2.95
		c6.7,0,11.64,1.27,14.82,3.81c3.18,2.54,4.77,6.01,4.77,10.4c0,2.54-0.41,5.03-1.21,7.45l-9.36,30.51
		c4.51-5.89,9.27-9.99,14.3-12.31c5.03-2.31,10.49-3.47,16.38-3.47c7.05,0,12.74,2.14,17.07,6.41c4.33,4.28,6.5,9.82,6.5,16.64
		c0,3.58-0.58,7.11-1.73,10.57L231.34,106.29z"/>
	<linearGradient id="SVGID_3_" gradientUnits="userSpaceOnUse" x1="241.1162" y1="85.1411" x2="425.3164" y2="85.1411">
		<stop  offset="0" style="stop-color:#FF79DA"/>
		<stop  offset="0.1688" style="stop-color:#F375DA;stop-opacity:0.9298"/>
		<stop  offset="0.4764" style="stop-color:#D26ADB;stop-opacity:0.8019"/>
		<stop  offset="0.8853" style="stop-color:#9E59DC;stop-opacity:0.6318"/>
		<stop  offset="0.9618" style="stop-color:#9356DC;stop-opacity:0.6"/>
	</linearGradient>
	<path class="st2" d="M413.01,106.29c-0.23,0.46-0.35,1.16-0.35,2.08c0,0.81,0.2,1.45,0.61,1.91c0.4,0.46,0.95,0.69,1.65,0.69
		c1.39,0,2.57-0.61,3.55-1.82c0.98-1.21,1.65-1.82,1.99-1.82c0.58,0,1.04,0.38,1.39,1.13c0.35,0.75,0.52,1.65,0.52,2.69
		c0.11,3.35-0.98,6.62-3.29,9.79c-2.31,3.18-5.69,5.78-10.14,7.8c-4.45,2.02-9.79,3.03-16.03,3.03c-7.63,0-13.69-1.76-18.2-5.29
		c-4.51-3.52-6.82-8.23-6.93-14.13c0-4.27,1.04-9.07,3.12-14.39l9.53-24.96c0.58-1.5,0.87-2.71,0.87-3.64c0-1.5-0.49-2.69-1.47-3.55
		c-0.98-0.87-2.17-1.3-3.55-1.3c-1.97,0-3.99,0.87-6.07,2.6s-3.93,4.45-5.55,8.15l-9.53,31.03c-0.23,0.46-0.35,1.16-0.35,2.08
		c0,0.81,0.2,1.45,0.61,1.91c0.4,0.46,0.95,0.69,1.65,0.69c1.39,0,2.57-0.61,3.55-1.82c0.98-1.21,1.65-1.82,1.99-1.82
		c0.58,0,1.04,0.38,1.39,1.13c0.35,0.75,0.52,1.65,0.52,2.69c0.11,3.35-0.98,6.62-3.29,9.79c-2.31,3.18-5.69,5.78-10.14,7.8
		c-4.45,2.02-9.79,3.03-16.03,3.03c-7.63,0-13.69-1.76-18.2-5.29c-4.51-3.52-6.82-8.23-6.93-14.13c0-4.27,1.04-9.07,3.12-14.39
		l9.53-24.96c0.58-1.5,0.87-2.71,0.87-3.64c0-1.5-0.49-2.69-1.47-3.55c-0.98-0.87-2.17-1.3-3.55-1.3c-1.97,0-3.99,0.84-6.07,2.51
		c-2.08,1.68-3.81,4.36-5.2,8.06l-11.44,37.1c-0.46,1.27-0.69,2.49-0.69,3.64c0,1.39,0.29,2.51,0.87,3.38
		c0.58,0.87,1.39,1.76,2.43,2.69c0.81,0.69,1.39,1.33,1.73,1.91c0.35,0.58,0.4,1.27,0.17,2.08c-0.46,1.5-1.56,2.6-3.29,3.29
		s-4.45,1.04-8.15,1.04H249.2c-3,0-5.17-0.49-6.5-1.47c-1.33-0.98-1.82-2.28-1.47-3.9c0.46-1.39,1.68-2.6,3.64-3.64
		c1.73-0.92,3.18-2.02,4.33-3.29c1.15-1.27,2.14-3.29,2.95-6.07l15.43-50.1c0.23-0.58,0.35-1.39,0.35-2.43
		c0-1.27-0.26-2.25-0.78-2.95s-1.36-1.56-2.51-2.6c-1.16-0.92-1.97-1.73-2.43-2.43c-0.46-0.69-0.52-1.62-0.17-2.77
		c0.69-2.66,4.33-5,10.92-7.02c6.59-2.02,13.46-3.03,20.63-3.03c5.66,0,10.14,1.56,13.43,4.68c3.29,3.12,4.88,7.4,4.77,12.83
		c4.74-6.59,9.73-11.15,14.99-13.69c5.26-2.54,10.95-3.81,17.07-3.81c6.7,0,12.16,1.94,16.38,5.81c4.22,3.87,6.56,8.93,7.02,15.17
		c4.97-7.86,10.28-13.32,15.95-16.38c5.66-3.06,11.84-4.59,18.55-4.59c7.05,0,12.74,2.14,17.07,6.41c4.33,4.28,6.5,9.82,6.5,16.64
		c0,3.58-0.58,7.11-1.73,10.57L413.01,106.29z"/>
	<linearGradient id="SVGID_4_" gradientUnits="userSpaceOnUse" x1="415.2612" y1="100.7422" x2="536.7764" y2="100.7422">
		<stop  offset="0" style="stop-color:#FF79DA"/>
		<stop  offset="0.1688" style="stop-color:#F375DA;stop-opacity:0.9298"/>
		<stop  offset="0.4764" style="stop-color:#D26ADB;stop-opacity:0.8019"/>
		<stop  offset="0.8853" style="stop-color:#9E59DC;stop-opacity:0.6318"/>
		<stop  offset="0.9618" style="stop-color:#9356DC;stop-opacity:0.6"/>
	</linearGradient>
	<path class="st3" d="M532.18,44.67c3.06,4.1,4.59,9.68,4.59,16.73c0,6.13-1.1,12.71-3.29,19.76
		c-4.28,14.21-11.12,27.62-20.54,40.22c-9.42,12.59-20.22,22.71-32.42,30.34c-12.19,7.63-24.35,11.44-36.49,11.44
		c-6.01,0-11.18-1.04-15.51-3.12c-4.33-2.08-7.63-4.85-9.88-8.32c-2.25-3.47-3.38-7.17-3.38-11.09c0-1.73,0.29-3.64,0.87-5.72
		c1.04-3.24,2.77-5.72,5.2-7.45c2.43-1.73,5.32-2.6,8.67-2.6c5.31,0,9.68,1.82,13.09,5.46c3.41,3.64,5.57,8.64,6.5,14.99
		c7.39-0.35,14.21-3.53,20.46-9.53c-5.89-1.04-10.26-3.03-13.09-5.98c-2.83-2.95-4.77-7.54-5.81-13.78l-6.93-42.47
		c-0.35-2.19-0.84-3.73-1.47-4.59c-0.64-0.87-1.47-1.3-2.51-1.3c-0.81,0-1.76,0.41-2.86,1.21c-1.1,0.81-1.88,1.21-2.34,1.21
		c-0.93,0-1.39-0.98-1.39-2.95c0-1.62,0.29-3.35,0.87-5.2c2.08-6.59,5.95-12.16,11.61-16.73c5.66-4.56,12.25-6.85,19.76-6.85
		c7.39,0,12.85,2.2,16.38,6.59c3.52,4.39,5.81,11.15,6.85,20.28l5.2,38.14c0.35,2.89,1.39,4.33,3.12,4.33
		c2.08,0,4.51-1.88,7.28-5.63c2.77-3.75,5.49-9.1,8.15-16.03c-3.47-3.12-6.13-6.7-7.97-10.75c-1.85-4.04-2.77-8.38-2.77-13
		c0-3.58,0.46-6.82,1.39-9.71c1.39-4.62,3.55-8.12,6.5-10.49c2.95-2.37,6.27-3.55,9.97-3.55C525.05,38.51,529.12,40.56,532.18,44.67
		z"/>
	<linearGradient id="SVGID_5_" gradientUnits="userSpaceOnUse" x1="527.5894" y1="66.1597" x2="643.3838" y2="66.1597">
		<stop  offset="0" style="stop-color:#FF79DA"/>
		<stop  offset="0.1688" style="stop-color:#F375DA;stop-opacity:0.9298"/>
		<stop  offset="0.4764" style="stop-color:#D26ADB;stop-opacity:0.8019"/>
		<stop  offset="0.8853" style="stop-color:#9E59DC;stop-opacity:0.6318"/>
		<stop  offset="0.9618" style="stop-color:#9356DC;stop-opacity:0.6"/>
	</linearGradient>
	<path class="st4" d="M634.11,7.74c6.18,3.76,9.27,8.35,9.27,13.78c0,4.39-1.82,7.77-5.46,10.14c-3.64,2.37-8.41,3.55-14.3,3.55
		c-5.43,0-9.65-1.33-12.65-3.99c-3.01-2.66-4.51-5.95-4.51-9.88c0-2.43,0.75-4.97,2.25-7.63c-3.47,0-6.36,0.84-8.67,2.51
		c-2.31,1.68-4.1,4.54-5.37,8.58c-0.69,2.54-1.04,4.91-1.04,7.11c0,2.77,0.49,4.94,1.47,6.5c0.98,1.56,2.4,2.34,4.25,2.34h10.23
		c6.01,0,9.01,1.85,9.01,5.55c0,0.46-0.12,1.16-0.35,2.08c-0.69,2.54-2.11,4.45-4.25,5.72c-2.14,1.27-5.35,1.91-9.62,1.91h-5.2
		l-17.16,56.16c-0.35,1.39-0.52,2.6-0.52,3.64c0,1.5,0.29,2.69,0.87,3.55c0.58,0.87,1.39,1.71,2.43,2.51
		c0.81,0.81,1.39,1.47,1.73,1.99s0.4,1.19,0.17,1.99c-0.58,1.5-1.73,2.6-3.47,3.29s-4.39,1.04-7.97,1.04h-39.52
		c-3,0-5.2-0.49-6.59-1.47c-1.39-0.98-1.85-2.28-1.39-3.9c0.46-1.39,1.68-2.6,3.64-3.64c1.73-0.92,3.18-2.02,4.33-3.29
		c1.15-1.27,2.14-3.29,2.95-6.07l13.52-44.38c0.58-1.73,0.87-3.52,0.87-5.37c0-2.31-0.49-4.13-1.47-5.46
		c-0.98-1.33-2.46-2.8-4.42-4.42c-1.27-1.04-2.23-1.93-2.86-2.69c-0.64-0.75-0.95-1.65-0.95-2.69c-0.12-2.19,0.66-3.75,2.34-4.68
		c1.67-0.92,4.88-1.39,9.62-1.39h4.33c-0.81-2.89-1.21-5.78-1.21-8.67c0-2.89,0.52-5.89,1.56-9.01c2.19-5.89,6.9-10.86,14.13-14.91
		c7.22-4.04,17.94-6.07,32.16-6.07C618.65,2.11,627.93,3.99,634.11,7.74z"/>
	<linearGradient id="SVGID_6_" gradientUnits="userSpaceOnUse" x1="609.4043" y1="85.1411" x2="720.6924" y2="85.1411">
		<stop  offset="0" style="stop-color:#FF79DA"/>
		<stop  offset="0.1688" style="stop-color:#F375DA;stop-opacity:0.9298"/>
		<stop  offset="0.4764" style="stop-color:#D26ADB;stop-opacity:0.8019"/>
		<stop  offset="0.8853" style="stop-color:#9E59DC;stop-opacity:0.6318"/>
		<stop  offset="0.9618" style="stop-color:#9356DC;stop-opacity:0.6"/>
	</linearGradient>
	<path class="st5" d="M709.51,48.05c7.45,6.36,11.18,14.68,11.18,24.96c0,3.47-0.46,7.34-1.39,11.61
		c-2.2,9.48-6.3,17.77-12.31,24.88c-6.01,7.11-13.38,12.6-22.1,16.47c-8.73,3.87-18.17,5.81-28.34,5.81
		c-16.06,0-27.94-3.21-35.62-9.62c-7.69-6.41-11.53-14.93-11.53-25.57c0-3.58,0.46-7.57,1.39-11.96
		c2.19-9.01,6.38-17.02,12.57-24.01c6.18-6.99,13.75-12.42,22.71-16.29c8.95-3.87,18.52-5.81,28.69-5.81
		C690.47,38.51,702.06,41.69,709.51,48.05z M666.52,60.44c-2.72,4.33-5.92,12.51-9.62,24.53c-3.7,12.02-5.55,20.45-5.55,25.31
		c0,2.54,0.4,4.25,1.21,5.11c0.81,0.87,1.91,1.3,3.29,1.3c2.43,0.23,4.94-1.85,7.54-6.24c2.6-4.39,5.86-12.94,9.79-25.66
		c3.58-11.21,5.37-19.35,5.37-24.44c0-2.43-0.38-4.1-1.13-5.03c-0.75-0.92-1.82-1.39-3.21-1.39
		C671.81,53.94,669.24,56.11,666.52,60.44z"/>
	<linearGradient id="SVGID_7_" gradientUnits="userSpaceOnUse" x1="723.1172" y1="85.1411" x2="834.4053" y2="85.1411">
		<stop  offset="0" style="stop-color:#FF79DA"/>
		<stop  offset="0.1688" style="stop-color:#F375DA;stop-opacity:0.9298"/>
		<stop  offset="0.4764" style="stop-color:#D26ADB;stop-opacity:0.8019"/>
		<stop  offset="0.8853" style="stop-color:#9E59DC;stop-opacity:0.6318"/>
		<stop  offset="0.9618" style="stop-color:#9356DC;stop-opacity:0.6"/>
	</linearGradient>
	<path class="st6" d="M823.22,48.05c7.45,6.36,11.18,14.68,11.18,24.96c0,3.47-0.46,7.34-1.39,11.61
		c-2.2,9.48-6.3,17.77-12.31,24.88c-6.01,7.11-13.38,12.6-22.1,16.47c-8.73,3.87-18.17,5.81-28.34,5.81
		c-16.06,0-27.94-3.21-35.62-9.62c-7.69-6.41-11.53-14.93-11.53-25.57c0-3.58,0.46-7.57,1.39-11.96
		c2.19-9.01,6.38-17.02,12.57-24.01c6.18-6.99,13.75-12.42,22.71-16.29c8.95-3.87,18.52-5.81,28.69-5.81
		C804.18,38.51,815.77,41.69,823.22,48.05z M780.23,60.44c-2.72,4.33-5.92,12.51-9.62,24.53c-3.7,12.02-5.55,20.45-5.55,25.31
		c0,2.54,0.4,4.25,1.21,5.11c0.81,0.87,1.91,1.3,3.29,1.3c2.43,0.23,4.94-1.85,7.54-6.24c2.6-4.39,5.86-12.94,9.79-25.66
		c3.58-11.21,5.37-19.35,5.37-24.44c0-2.43-0.38-4.1-1.13-5.03c-0.75-0.92-1.82-1.39-3.21-1.39
		C785.52,53.94,782.95,56.11,780.23,60.44z"/>
	<linearGradient id="SVGID_8_" gradientUnits="userSpaceOnUse" x1="837.1777" y1="66.4197" x2="958" y2="66.4197">
		<stop  offset="0" style="stop-color:#FF79DA"/>
		<stop  offset="0.1688" style="stop-color:#F375DA;stop-opacity:0.9298"/>
		<stop  offset="0.4764" style="stop-color:#D26ADB;stop-opacity:0.8019"/>
		<stop  offset="0.8853" style="stop-color:#9E59DC;stop-opacity:0.6318"/>
		<stop  offset="0.9618" style="stop-color:#9356DC;stop-opacity:0.6"/>
	</linearGradient>
	<path class="st7" d="M931.65,107.16c0,0.81,0.23,1.45,0.69,1.91c0.46,0.46,1.04,0.69,1.73,0.69c1.39,0,2.57-0.61,3.55-1.82
		c0.98-1.21,1.65-1.82,1.99-1.82c0.58,0,1.04,0.41,1.39,1.21c0.35,0.81,0.52,1.73,0.52,2.77c0.11,3.12-1.07,6.3-3.55,9.53
		c-2.49,3.24-5.81,5.89-9.97,7.97s-8.67,3.12-13.52,3.12c-5.78,0-10.81-1.1-15.08-3.29c-4.28-2.19-7.22-5.08-8.84-8.67
		c-3.12,4.05-6.7,7.05-10.75,9.01c-4.05,1.97-8.32,2.95-12.83,2.95c-5.32,0-10.26-1.33-14.82-3.99c-4.57-2.66-8.21-6.44-10.92-11.35
		c-2.72-4.91-4.07-10.49-4.07-16.73c0-10.51,1.99-20.42,5.98-29.73c3.99-9.3,9.56-16.81,16.73-22.53
		c7.16-5.72,15.31-8.58,24.44-8.58c4.97,0,9.21,0.58,12.74,1.73c3.52,1.16,6.73,2.89,9.62,5.2l5.89-19.41
		c0.35-1.04,0.52-1.91,0.52-2.6c0-1.27-0.32-2.31-0.95-3.12c-0.64-0.81-1.47-1.62-2.51-2.43c-1.16-0.92-1.99-1.73-2.51-2.43
		c-0.52-0.69-0.61-1.62-0.26-2.77c0.69-2.66,4.33-4.97,10.92-6.93c6.59-1.96,13.46-2.95,20.63-2.95c6.7,0,11.64,1.27,14.82,3.81
		c3.18,2.54,4.77,6.01,4.77,10.4c0,2.54-0.41,5.03-1.21,7.45L932,105.25C931.76,106.18,931.65,106.81,931.65,107.16z M896.98,54.11
		c-3.35,0-6.65,2.49-9.88,7.45c-3.24,4.97-5.84,10.98-7.8,18.03c-1.97,7.05-2.89,13.41-2.77,19.07c0,6.36,2.08,9.53,6.24,9.53
		c1.5,0,2.77-0.61,3.81-1.82s2.02-3.21,2.95-5.98l13.52-43.86C901.2,54.92,899.18,54.11,896.98,54.11z"/>
</g>
</svg>
